<svg width="434" height="434" viewBox="0 0 434 434" fill="none" xmlns="http://www.w3.org/2000/svg">
<ellipse cx="217" cy="217" rx="217" ry="217" fill="#2D2D2D"/>
<path d="M434 217C434 188.503 428.387 160.285 417.482 133.958C406.577 107.63 390.592 83.7081 370.442 63.5578C350.292 43.4075 326.37 27.4234 300.042 16.5181C273.715 5.61287 245.497 -1.24564e-06 217 0C188.503 1.24564e-06 160.285 5.61287 133.958 16.5181C107.63 27.4234 83.7081 43.4075 63.5578 63.5578C43.4075 83.7082 27.4234 107.63 16.5181 133.958C5.61286 160.285 -7.40607e-06 188.503 -5.65778e-06 217L217 217H434Z" fill="#3A3A3A"/>
<ellipse cx="218.792" cy="218.792" rx="63.5202" ry="63.5202" fill="#FAFAF5"/>
<ellipse cx="219.172" cy="219.173" rx="21.1734" ry="21.1734" transform="rotate(1.03981 219.172 219.173)" fill="#2D2D2D"/>
<path d="M217 0C245.497 3.39822e-07 273.715 5.61287 300.042 16.5181C326.37 27.4234 350.292 43.4075 370.442 63.5578C390.592 83.7082 406.577 107.63 417.482 133.958C428.387 160.285 434 188.503 434 217L389.361 217C389.361 194.365 384.903 171.952 376.241 151.04C367.579 130.128 354.883 111.127 338.878 95.1222C322.873 79.117 303.872 66.421 282.96 57.759C262.048 49.097 239.635 44.6388 217 44.6388L217 0Z" fill="#303030"/>
<path d="M434 217C434 248.543 427.123 279.707 413.849 308.32C400.575 336.934 381.222 362.31 357.139 382.68C333.056 403.051 304.822 417.926 274.402 426.27C243.983 434.614 212.11 436.226 181.005 430.994L188.409 386.973C213.116 391.129 238.432 389.849 262.594 383.221C286.756 376.594 309.182 364.779 328.311 348.599C347.44 332.418 362.812 312.263 373.356 289.535C383.899 266.807 389.361 242.054 389.361 217H434Z" fill="#232222"/>
</svg>
