<svg width="1024" height="1024" viewBox="0 0 1024 1024" fill="none" xmlns="http://www.w3.org/2000/svg">
<rect width="1024" height="1024" rx="80" fill="#FAFAF5"/>
<circle cx="723.615" cy="299.475" r="219.615" fill="#2D2D2D"/>
<circle cx="723.685" cy="299.476" r="179.685" fill="#2D2D2D"/>
<path d="M914.192 190.192C899.772 165.216 880.574 143.324 857.693 125.768C834.813 108.211 808.698 95.3325 780.841 87.8681C752.983 80.4036 723.928 78.4993 695.334 82.2637C666.741 86.0281 639.169 95.3876 614.192 109.808C589.216 124.228 567.324 143.426 549.768 166.307C532.211 189.187 519.332 215.302 511.868 243.159C504.404 271.017 502.499 300.072 506.264 328.666C510.028 357.259 519.387 384.831 533.808 409.808L724 300L914.192 190.192Z" fill="#3A3A3A"/>
<circle cx="723.895" cy="299.475" r="59.8951" fill="#4DA6FF"/>
<circle cx="723.965" cy="299.475" r="19.965" fill="#2D2D2D"/>
<path d="M610.827 111.78C635.849 96.6882 663.631 86.7415 692.546 82.5228C721.461 78.304 750.927 79.8981 779.218 87.2114C807.509 94.5248 834.055 107.41 857.303 125.114C880.551 142.817 900.032 164.981 914.606 190.309L880.342 210.024C868.392 189.255 852.417 171.08 833.354 156.564C814.291 142.047 792.522 131.481 769.324 125.484C746.125 119.487 721.963 118.18 698.253 121.639C674.543 125.099 651.762 133.255 631.244 145.63L610.827 111.78Z" fill="#303030"/>
<path d="M914.673 190.426C930.577 218.105 940.256 248.919 943.034 280.721C945.813 312.523 941.625 344.548 930.763 374.566C919.9 404.584 902.624 431.873 880.138 454.533C857.651 477.192 830.495 494.677 800.561 505.769L786.826 468.701C811.372 459.606 833.639 445.268 852.078 426.687C870.517 408.107 884.683 385.73 893.591 361.115C902.498 336.5 905.932 310.239 903.654 284.162C901.375 258.084 893.439 232.817 880.398 210.12L914.673 190.426Z" fill="#232222"/>
<circle cx="511.615" cy="511.475" r="219.615" fill="#2D2D2D"/>
<circle cx="511.685" cy="511.476" r="179.685" fill="#2D2D2D"/>
<path d="M702.192 402.192C687.772 377.216 668.574 355.324 645.693 337.768C622.813 320.211 596.698 307.332 568.841 299.868C540.983 292.404 511.928 290.499 483.334 294.264C454.741 298.028 427.169 307.388 402.192 321.808C377.216 336.228 355.324 355.426 337.768 378.307C320.211 401.187 307.332 427.302 299.868 455.16C292.404 483.017 290.499 512.072 294.264 540.666C298.028 569.259 307.387 596.831 321.808 621.808L512 512L702.192 402.192Z" fill="#3A3A3A"/>
<circle cx="511.895" cy="511.475" r="59.8951" fill="#1EE604"/>
<circle cx="511.965" cy="511.475" r="19.965" fill="#2D2D2D"/>
<path d="M398.827 323.78C423.849 308.688 451.631 298.742 480.546 294.523C509.461 290.304 538.927 291.898 567.218 299.212C595.509 306.525 622.055 319.411 645.303 337.114C668.551 354.817 688.032 376.981 702.606 402.309L668.342 422.024C656.392 401.255 640.417 383.08 621.354 368.564C602.291 354.047 580.522 343.481 557.324 337.484C534.125 331.487 509.963 330.18 486.253 333.639C462.543 337.099 439.762 345.255 419.244 357.63L398.827 323.78Z" fill="#303030"/>
<path d="M702.673 402.426C718.577 430.105 728.256 460.919 731.034 492.721C733.813 524.523 729.625 556.548 718.763 586.566C707.9 616.584 690.624 643.873 668.138 666.533C645.651 689.192 618.495 706.677 588.561 717.769L574.826 680.701C599.372 671.606 621.639 657.268 640.078 638.688C658.517 620.107 672.683 597.73 681.591 573.115C690.498 548.5 693.932 522.24 691.654 496.162C689.375 470.084 681.439 444.817 668.398 422.12L702.673 402.426Z" fill="#232222"/>
<circle cx="299.474" cy="723.475" r="219.615" fill="#2D2D2D"/>
<circle cx="299.473" cy="723.476" r="179.685" fill="#2D2D2D"/>
<path d="M490.192 614.192C475.772 589.216 456.574 567.324 433.693 549.768C410.813 532.211 384.698 519.332 356.841 511.868C328.983 504.404 299.928 502.499 271.334 506.264C242.741 510.028 215.169 519.388 190.192 533.808C165.216 548.228 143.324 567.426 125.768 590.307C108.211 613.187 95.3324 639.302 87.868 667.159C80.4035 695.017 78.4992 724.072 82.2636 752.666C86.028 781.259 95.3875 808.831 109.808 833.808L300 724L490.192 614.192Z" fill="#3A3A3A"/>
<circle cx="299.475" cy="723.475" r="59.8951" fill="#FF4D8D"/>
<circle cx="299.475" cy="723.475" r="19.965" fill="#2D2D2D"/>
<path d="M186.415 535.78C211.437 520.688 239.219 510.741 268.134 506.523C297.049 502.304 326.515 503.898 354.805 511.211C383.096 518.525 409.643 531.41 432.891 549.114C456.139 566.817 475.62 588.981 490.194 614.309L455.93 634.024C443.98 613.255 428.005 595.08 408.942 580.564C389.879 566.047 368.11 555.481 344.912 549.484C321.713 543.487 297.551 542.18 273.841 545.639C250.131 549.099 227.349 557.255 206.831 569.63L186.415 535.78Z" fill="#303030"/>
<path d="M490.261 614.426C506.165 642.105 515.843 672.919 518.622 704.721C521.401 736.523 517.213 768.548 506.351 798.566C495.488 828.584 478.212 855.873 455.725 878.533C433.239 901.192 406.083 918.677 376.149 929.769L362.414 892.701C386.959 883.606 409.227 869.268 427.666 850.687C446.105 832.107 460.271 809.73 469.179 785.115C478.086 760.5 481.52 734.239 479.241 708.162C476.963 682.084 469.027 656.817 455.985 634.12L490.261 614.426Z" fill="#232222"/>
<path d="M835.436 724.653L805.102 837.862L835.436 724.653ZM835.436 724.653L845.895 685.619C846.55 683.177 846.877 681.955 847.564 681.026C848.171 680.204 848.974 679.549 849.9 679.119C850.949 678.633 852.211 678.557 854.735 678.405L911.198 675.016C915.76 674.742 918.042 674.605 919.596 675.471C920.957 676.228 921.977 677.477 922.446 678.962C922.981 680.659 922.39 682.866 921.207 687.28L910.748 726.314C910.094 728.757 909.766 729.978 909.079 730.908C908.473 731.729 907.67 732.384 906.744 732.814C905.694 733.301 904.433 733.377 901.909 733.528L845.445 736.917C840.884 737.191 838.602 737.328 837.047 736.463C835.687 735.706 834.667 734.456 834.197 732.971C833.662 731.275 834.254 729.067 835.436 724.653ZM805.102 837.862C800.744 854.127 778.751 862.366 755.98 856.265C733.208 850.163 718.281 832.031 722.64 815.766C726.998 799.5 748.991 791.261 771.762 797.363C794.534 803.465 809.461 821.595 805.102 837.862Z" fill="#3A3A3A"/>
<path d="M835.436 724.653L805.102 837.862M835.436 724.653L845.895 685.619C846.55 683.177 846.877 681.955 847.564 681.026C848.171 680.204 848.974 679.549 849.9 679.119C850.949 678.633 852.211 678.557 854.735 678.405L911.198 675.016C915.76 674.742 918.042 674.605 919.596 675.471C920.957 676.228 921.977 677.477 922.446 678.962C922.981 680.659 922.39 682.866 921.207 687.28L910.748 726.314C910.094 728.757 909.766 729.978 909.079 730.908C908.473 731.729 907.67 732.384 906.744 732.814C905.694 733.301 904.433 733.377 901.909 733.528L845.445 736.917C840.884 737.191 838.602 737.328 837.047 736.463C835.687 735.706 834.667 734.456 834.197 732.971C833.662 731.275 834.254 729.067 835.436 724.653ZM805.102 837.862C800.744 854.127 778.751 862.366 755.98 856.265C733.208 850.163 718.281 832.031 722.64 815.766C726.998 799.5 748.991 791.261 771.762 797.363C794.534 803.465 809.461 821.595 805.102 837.862Z" stroke="#3A3A3A" stroke-width="15" stroke-linecap="round" stroke-linejoin="round"/>
<path d="M170.873 265.741L186.476 364.323L170.873 265.741ZM170.873 265.741L165.493 231.751C165.157 229.624 164.988 228.56 165.201 227.599C165.388 226.75 165.786 225.962 166.358 225.307C167.006 224.565 167.961 224.069 169.872 223.077L212.627 200.888C216.082 199.095 217.809 198.198 219.319 198.333C220.639 198.451 221.865 199.07 222.745 200.063C223.749 201.197 224.053 203.119 224.662 206.963L230.041 240.954C230.378 243.081 230.546 244.144 230.334 245.106C230.146 245.954 229.748 246.742 229.177 247.398C228.529 248.14 227.574 248.635 225.662 249.627L182.907 271.817C179.453 273.61 177.725 274.506 176.216 274.372C174.895 274.253 173.669 273.635 172.79 272.642C171.786 271.507 171.481 269.585 170.873 265.741ZM186.476 364.323C188.718 378.486 174.46 392.513 154.631 395.651C134.802 398.79 116.91 389.852 114.668 375.688C112.426 361.524 126.684 347.498 146.513 344.36C166.342 341.221 184.234 350.158 186.476 364.323Z" fill="#3A3A3A"/>
<path d="M170.873 265.741L186.476 364.323M170.873 265.741L165.493 231.751C165.157 229.624 164.988 228.56 165.201 227.599C165.388 226.75 165.786 225.962 166.358 225.307C167.006 224.565 167.961 224.069 169.872 223.077L212.627 200.888C216.082 199.095 217.809 198.198 219.319 198.333C220.639 198.451 221.865 199.07 222.745 200.063C223.749 201.197 224.053 203.119 224.662 206.963L230.041 240.954C230.378 243.081 230.546 244.144 230.334 245.106C230.146 245.954 229.748 246.742 229.177 247.398C228.529 248.14 227.574 248.635 225.662 249.627L182.907 271.817C179.453 273.61 177.725 274.506 176.216 274.372C174.895 274.253 173.669 273.635 172.79 272.642C171.786 271.507 171.481 269.585 170.873 265.741ZM186.476 364.323C188.718 378.486 174.46 392.513 154.631 395.651C134.802 398.79 116.91 389.852 114.668 375.688C112.426 361.524 126.684 347.498 146.513 344.36C166.342 341.221 184.234 350.158 186.476 364.323Z" stroke="#3A3A3A" stroke-width="15" stroke-linecap="round" stroke-linejoin="round"/>
<path d="M449.814 85.3363L437.372 157.248L449.814 85.3363ZM449.814 85.3363L454.103 60.5417C454.372 58.9902 454.506 58.2143 454.88 57.5992C455.21 57.0559 455.671 56.6042 456.221 56.2855C456.844 55.9247 457.622 55.8066 459.179 55.5706L494.003 50.2918C496.817 49.8653 498.224 49.6521 499.237 50.1011C500.123 50.4941 500.826 51.2116 501.201 52.1061C501.628 53.128 501.385 54.5301 500.9 57.3342L496.611 82.129C496.342 83.6805 496.208 84.4563 495.834 85.0715C495.504 85.6148 495.043 86.0664 494.493 86.3851C493.87 86.7459 493.092 86.864 491.535 87.1L456.711 92.3788C453.897 92.8053 452.49 93.0185 451.477 92.5695C450.591 92.1765 449.888 91.4591 449.513 90.5645C449.086 89.5426 449.329 88.1405 449.814 85.3363ZM437.372 157.248C435.585 167.58 422.41 173.927 407.945 171.425C393.481 168.922 383.204 158.518 384.991 148.186C386.779 137.853 399.954 131.507 414.418 134.009C428.883 136.512 439.16 146.916 437.372 157.248Z" fill="#3A3A3A"/>
<path d="M449.814 85.3363L437.372 157.248M449.814 85.3363L454.103 60.5417C454.372 58.9902 454.506 58.2143 454.88 57.5992C455.21 57.0559 455.671 56.6042 456.221 56.2855C456.844 55.9247 457.622 55.8066 459.179 55.5706L494.003 50.2918C496.817 49.8653 498.224 49.6521 499.237 50.1011C500.123 50.4941 500.826 51.2116 501.201 52.1061C501.628 53.128 501.385 54.5301 500.9 57.3342L496.611 82.129C496.342 83.6805 496.208 84.4563 495.834 85.0715C495.504 85.6148 495.043 86.0664 494.493 86.3851C493.87 86.7459 493.092 86.864 491.535 87.1L456.711 92.3788C453.897 92.8053 452.49 93.0185 451.477 92.5695C450.591 92.1765 449.888 91.4591 449.513 90.5645C449.086 89.5426 449.329 88.1405 449.814 85.3363ZM437.372 157.248C435.585 167.58 422.41 173.927 407.945 171.425C393.481 168.922 383.204 158.518 384.991 148.186C386.779 137.853 399.954 131.507 414.418 134.009C428.883 136.512 439.16 146.916 437.372 157.248Z" stroke="#3A3A3A" stroke-width="15" stroke-linecap="round" stroke-linejoin="round"/>
</svg>
