<svg width="75" height="99" viewBox="0 0 75 99" fill="none" xmlns="http://www.w3.org/2000/svg">
<path d="M40 33.455V81.5009V33.455ZM40 33.455V16.8892C40 15.8526 40 15.3342 40.1735 14.8932C40.3265 14.5037 40.575 14.159 40.896 13.8905C41.26 13.5865 41.7515 13.4226 42.735 13.0948L64.735 5.76208C66.5125 5.16963 67.4015 4.87336 68.109 5.05099C68.728 5.20648 69.2645 5.59299 69.608 6.13125C70 6.7462 70 7.68297 70 9.55646V26.1223C70 27.159 70 27.6773 69.8265 28.1183C69.6735 28.5078 69.425 28.8525 69.104 29.121C68.74 29.425 68.2485 29.5889 67.265 29.9167L45.265 37.2495C43.4875 37.8419 42.5985 38.1381 41.891 37.9605C41.272 37.8051 40.7355 37.4185 40.392 36.8803C40 36.2653 40 35.3286 40 33.455ZM40 81.5009C40 88.4038 32.165 93.9998 22.5 93.9998C12.835 93.9998 5 88.4038 5 81.5009C5 74.5975 12.835 69.002 22.5 69.002C32.165 69.002 40 74.5975 40 81.5009Z" fill="#FAFAF5"/>
<path d="M40 33.455V81.5009M40 33.455V16.8892C40 15.8526 40 15.3342 40.1735 14.8932C40.3265 14.5037 40.575 14.159 40.896 13.8905C41.26 13.5865 41.7515 13.4226 42.735 13.0948L64.735 5.76208C66.5125 5.16963 67.4015 4.87336 68.109 5.05099C68.728 5.20648 69.2645 5.59299 69.608 6.13125C70 6.7462 70 7.68297 70 9.55646V26.1223C70 27.159 70 27.6773 69.8265 28.1183C69.6735 28.5078 69.425 28.8525 69.104 29.121C68.74 29.425 68.2485 29.5889 67.265 29.9167L45.265 37.2495C43.4875 37.8419 42.5985 38.1381 41.891 37.9605C41.272 37.8051 40.7355 37.4185 40.392 36.8803C40 36.2653 40 35.3286 40 33.455ZM40 81.5009C40 88.4038 32.165 93.9998 22.5 93.9998C12.835 93.9998 5 88.4038 5 81.5009C5 74.5975 12.835 69.002 22.5 69.002C32.165 69.002 40 74.5975 40 81.5009Z" stroke="#FAFAF5" stroke-width="10" stroke-linecap="round" stroke-linejoin="round"/>
</svg>
